<svg id="Capa_1" enable-background="new 0 0 512 512" height="512" viewBox="0 0 512 512" width="512" xmlns="http://www.w3.org/2000/svg"><g><g><path d="m466.005 215.796h-420.01c-25.402 0-45.995 20.592-45.995 45.995v121.39c0 25.402 20.593 45.995 45.995 45.995h140.785c4.168 0 8.095 1.956 10.606 5.283l50.456 66.857c4.089 5.419 12.227 5.419 16.317 0l50.456-66.857c2.511-3.327 6.438-5.283 10.606-5.283h140.785c25.402 0 45.995-20.593 45.995-45.995v-121.39c-.001-25.403-20.594-45.995-45.996-45.995z" fill="#fff0af"/><path d="m475.409 216.761c.631 3.036.965 6.18.965 9.403v111.285c0 30.983-25.117 56.1-56.1 56.1h-409.906c-3.223 0-6.367-.335-9.403-.965 4.341 20.892 22.85 36.592 45.029 36.592h140.785c4.168 0 8.095 1.956 10.606 5.283l50.456 66.857c4.089 5.419 12.227 5.419 16.317 0l50.456-66.857c2.511-3.327 6.438-5.283 10.606-5.283h140.785c25.402 0 45.995-20.593 45.995-45.995v-121.39c0-22.18-15.7-40.689-36.591-45.03z" fill="#ffe07d"/></g><path d="m204.792 248.865c-6.903-40.498-42.144-71.335-84.609-71.335h-34.184c-40.217 0-73.955 27.659-83.278 64.989-.805 3.223 1.647 6.346 4.969 6.346z" fill="#95d6a4"/><path d="m170.414 248.865h34.378c-6.903-40.498-42.144-71.335-84.609-71.335h-34.184c-.033 0-.065.002-.097.002 42.422.048 77.615 30.867 84.512 71.333z" fill="#78c2a4"/><path d="m354.94 248.865c-6.903-40.498-42.144-71.335-84.609-71.335h-34.184c-42.465 0-77.706 30.837-84.609 71.335z" fill="#dd5790"/><path d="m320.562 248.865h34.378c-6.903-40.498-42.144-71.335-84.609-71.335h-34.184c-.033 0-.065.002-.097.002 42.421.048 77.614 30.867 84.512 71.333z" fill="#da387d"/><path d="m504.117 248.865c3.322 0 5.773-3.124 4.969-6.346-9.323-37.33-43.06-64.989-83.278-64.989h-34.184c-42.465 0-77.706 30.837-84.609 71.335z" fill="#335995"/><path d="m117.619 205.182h-29.055c-8.284 0-15-6.716-15-15v-44.054h59.054v44.054c.001 8.284-6.715 15-14.999 15z" fill="#904f40"/><path d="m267.766 206.598h-29.054c-8.284 0-15-6.716-15-15v-44.054h59.054v44.054c0 8.285-6.716 15-15 15z" fill="#eaac9d"/><circle cx="408.716" cy="338.702" fill="#f4fbff" r="66.913"/><path d="m447.591 284.258c7.84 10.96 12.469 24.373 12.469 38.876 0 36.955-29.958 66.913-66.913 66.913-14.503 0-27.916-4.629-38.876-12.469 12.137 16.967 31.992 28.037 54.445 28.037 36.955 0 66.913-29.958 66.913-66.913 0-22.452-11.07-42.307-28.038-54.444z" fill="#e4f6ff"/><path d="m372.81 336.514 25.906 25.906 48.812-48.812" style="fill:none;stroke:#9bd069;stroke-width:15;stroke-linecap:round;stroke-linejoin:round;stroke-miterlimit:10"/><g><g style="fill:none;stroke:#4678bb;stroke-width:15;stroke-linecap:round;stroke-linejoin:round;stroke-miterlimit:10"><path d="m247.31 316.813v49.455"/><path d="m273.913 317.437-25.021 22.998 26.776 25.833"/></g><g><path d="m49.32 311.147h12.625v59.067" style="fill:none;stroke:#4678bb;stroke-width:15;stroke-linecap:round;stroke-linejoin:round;stroke-miterlimit:10"/></g><g><path d="m130.391 370.369s-28.738.361-30.099-.093 2.183-2.851 21.024-29.772c3.519-5.028 5.456-9.269 6.28-12.823l.292-2.285c0-8.347-6.767-15.114-15.114-15.114-7.345 0-13.466 5.239-14.83 12.184" style="fill:none;stroke:#4678bb;stroke-width:15;stroke-linecap:round;stroke-linejoin:round;stroke-miterlimit:10"/></g><g><path d="m196.992 354.339c0 9.433-7.647 17.081-17.081 17.081-9.433 0-17.081-7.647-17.081-17.081v-27.316c0-9.433 7.647-17.081 17.081-17.081 9.433 0 17.081 7.647 17.081 17.081z" style="fill:none;stroke:#4678bb;stroke-width:15;stroke-linecap:round;stroke-linejoin:round;stroke-miterlimit:10"/></g></g><path d="m476.038 248.865h28.078c3.322 0 5.773-3.124 4.969-6.346-9.323-37.33-43.06-64.989-83.278-64.989h-34.184c-.032 0-.064.002-.097.002 42.422.048 77.615 30.867 84.512 71.333z" fill="#21386b"/><path d="m423.243 206.598h-29.054c-8.284 0-15-6.716-15-15v-44.054h59.054v44.054c0 8.285-6.716 15-15 15z" fill="#eaac9d"/><path d="m114.519 146.128v43.723c0 8.467-6.864 15.332-15.332 15.332h18.431c8.284 0 15-6.716 15-15v-44.054h-18.099z" fill="#784033"/><path d="m264.667 147.544v43.723c0 8.467-6.864 15.332-15.332 15.332h18.431c8.284 0 15-6.716 15-15v-44.054h-18.099z" fill="#df9380"/><path d="m420.143 147.544v43.723c0 8.467-6.864 15.332-15.332 15.332h18.431c8.284 0 15-6.716 15-15v-44.054h-18.099z" fill="#df9380"/><circle cx="253.239" cy="29.23" fill="#aa7a63" r="22.61"/><path d="m253.239 6.62c-2.734 0-5.343.51-7.769 1.399 8.654 3.172 14.841 11.458 14.841 21.211s-6.187 18.039-14.841 21.211c2.426.889 5.035 1.399 7.769 1.399 12.487 0 22.61-10.123 22.61-22.61s-10.123-22.61-22.61-22.61z" fill="#986b54"/><path d="m302.732 106.781h-1.866v-12.671l-3.066-16.811h-89.12l-3.066 16.811v12.671h-1.866c-7.788 0-14.101 6.313-14.101 14.101v4.589c0 9.109 7.384 16.494 16.494 16.494h3.133c3.072 8.67 8.013 16.655 14.576 23.343l3.61 3.679c4.406 4.49 9.691 7.583 15.309 9.279 0 0 6.136.202 9.983.101 3.603-.094 8.634.706 12.084-.461 5.198-1.757 10.075-4.73 14.186-8.919l3.61-3.679c6.563-6.688 11.504-14.673 14.576-23.343h3.133c9.109 0 16.494-7.384 16.494-16.494v-4.589c-.002-7.788-6.316-14.101-14.103-14.101z" fill="#ffcbbe"/><path d="m302.732 106.781h-1.866v-12.671l-3.066-16.812h-17.877v43.391c0 16.687-6.547 32.708-18.235 44.619l-3.61 3.679c-4.406 4.49-9.692 7.581-15.31 9.277 12.436 3.754 26.499.663 36.253-9.277l3.61-3.679c6.563-6.688 11.504-14.673 14.576-23.343h3.133c9.109 0 16.494-7.384 16.494-16.494v-4.589c-.001-7.788-6.315-14.101-14.102-14.101z" fill="#eaac9d"/><path d="m152.584 104.044h-1.866v-10.995l-3.066-6.733h-89.12l-3.066 6.733v10.995h-1.866c-7.788 0-14.101 6.313-14.101 14.101v4.589c0 9.109 7.384 16.494 16.494 16.494h3.133c3.072 8.67 8.013 16.655 14.576 23.343l3.61 3.679c4.406 4.49 9.691 7.583 15.309 9.279 0 0 6.028.28 9.594.27 3.83-.011 8.642.646 12.313-.575 5.258-1.749 10.193-4.741 14.346-8.973l3.61-3.679c6.563-6.688 11.504-14.673 14.576-23.343h3.133c9.109 0 16.494-7.384 16.494-16.494v-4.589c-.002-7.789-6.315-14.102-14.103-14.102z" fill="#a55e4d"/><path d="m152.584 104.044h-1.866v-10.995l-3.066-6.733h-17.877v31.637c0 16.687-6.547 32.708-18.235 44.619l-3.61 3.679c-4.406 4.49-9.692 7.581-15.31 9.277 12.436 3.754 26.499.663 36.253-9.277l3.61-3.679c6.563-6.688 11.504-14.673 14.576-23.343h3.133c9.109 0 16.494-7.384 16.494-16.494v-4.589c-.001-7.789-6.314-14.102-14.102-14.102z" fill="#904f40"/><path d="m458.208 104.044h-1.866v-10.995l-3.066-6.733h-89.12l-3.066 6.733v10.995h-1.866c-7.788 0-14.101 6.313-14.101 14.101v4.589c0 9.109 7.384 16.494 16.494 16.494h3.133c3.072 8.67 8.013 16.655 14.576 23.343l3.61 3.679c4.406 4.49 9.691 7.583 15.309 9.279 0 0 6.5.222 10.338.125 3.613-.092 8.27.685 11.73-.485 5.198-1.757 10.075-4.73 14.186-8.919l3.61-3.679c6.563-6.688 11.504-14.673 14.576-23.343h3.133c9.109 0 16.494-7.384 16.494-16.494v-4.589c-.002-7.788-6.316-14.101-14.104-14.101z" fill="#ffcbbe"/><path d="m456.342 93.049v-23.695c0-12.983-10.525-23.508-23.508-23.508h-48.236c-12.983 0-23.508 10.525-23.508 23.508v23.694h95.252z" fill="#ffd064"/><path d="m458.208 104.044h-1.866v-10.995l-3.066-6.733h-17.877v31.637c0 16.687-6.547 32.708-18.235 44.619l-3.61 3.679c-4.406 4.49-9.692 7.581-15.31 9.277 12.436 3.754 26.5.663 36.253-9.277l3.61-3.679c6.563-6.688 11.504-14.673 14.576-23.343h3.133c9.109 0 16.494-7.384 16.494-16.494v-4.589c0-7.789-6.314-14.102-14.102-14.102z" fill="#eaac9d"/><path d="m432.834 45.846h-20.943c12.983 0 23.508 10.525 23.508 23.508v23.694h20.943v-23.694c0-12.983-10.525-23.508-23.508-23.508z" fill="#ffc250"/><path d="m150.718 93.049v-23.695c0-12.983-10.525-23.508-23.508-23.508h-48.237c-12.983 0-23.508 10.525-23.508 23.508v23.694h95.253z" fill="#7a402b"/><path d="m127.21 45.846h-20.943c12.983 0 23.508 10.525 23.508 23.508v23.694h20.943v-23.694c0-12.983-10.525-23.508-23.508-23.508z" fill="#523838"/><path d="m253.239 82.857c17.125 0 33.3 4.057 47.627 11.253v-17.734c0-17.257-12.397-31.619-28.77-34.666l-7.727.776-7.474-1.372h-16.02c-19.475 0-35.263 15.788-35.263 35.263v17.733c14.327-7.196 30.502-11.253 47.627-11.253z" fill="#aa7a63"/><g><path d="m265.603 41.114h-20.947c19.475 0 35.263 15.788 35.263 35.263v9.872c7.316 1.894 14.331 4.538 20.947 7.861v-17.734c-.001-19.475-15.788-35.262-35.263-35.262z" fill="#986b54"/></g></g></svg>